# xmcd
#
# Track frame offsets: 
#        150
#        22133
#        40846
#        57753
#        73646
#        90197
#        113288
#        131554
#        149885
#        166200
#        182479
#        201432
#        218607
#        237282
#        256818
#        275873
#        293821
#        309943
#
# Disc length: 4371 seconds
#
# Revision: 0
# Processed by: cddbd v1.5.2PL0 Copyright (c) Steve Scherf et al.
# Submitted via: ExactAudioCopyFreeDBPlugin 1.0
#
DISCID=04111112
DTITLE=Emmanuel - Lo Escencial CD2
DYEAR=2005
DGENRE=Vocal
TTITLE0=Toda la vida
TTITLE1=Pobre diablo
TTITLE2=Este terco corazón
TTITLE3=Seguía lloviendo afuera
TTITLE4=Es mi mujer
TTITLE5=Ese soy yo
TTITLE6=Porque te vas
TTITLE7=Estoy loco
TTITLE8=Ven con el alma desnuda
TTITLE9=Sin caballero no hay dama
TTITLE10=Jarro pichao
TTITLE11=Tengo mucho que aprender de ti
TTITLE12=Amor sin final
TTITLE13=Tengo
TTITLE14=El y yo
TTITLE15=Esa triste guitarra
TTITLE16=Amanecí en tus brazos
TTITLE17=El año que vendrá... querido amigo
EXTD=
EXTT0=
EXTT1=
EXTT2=
EXTT3=
EXTT4=
EXTT5=
EXTT6=
EXTT7=
EXTT8=
EXTT9=
EXTT10=
EXTT11=
EXTT12=
EXTT13=
EXTT14=
EXTT15=
EXTT16=
EXTT17=
PLAYORDER=
